<?xml version="1.0" standalone="no"?>
<svg xmlns:xlink="http://www.w3.org/1999/xlink" id="wave" style="transform:rotate(0deg); transition: 0.3s" viewBox="0 0 1440 110" version="1.1" xmlns="http://www.w3.org/2000/svg"><defs><linearGradient id="sw-gradient-0" x1="0" x2="0" y1="1" y2="0"><stop stop-color="rgba(255, 255, 255, 1)" offset="0%"/><stop stop-color="rgba(255, 255, 255, 1)" offset="100%"/></linearGradient></defs><path style="transform:translate(0, 0px); opacity:1" fill="url(#sw-gradient-0)" d="M0,11L20,12.8C40,15,80,18,120,33C160,48,200,73,240,77C280,81,320,62,360,47.7C400,33,440,22,480,27.5C520,33,560,55,600,64.2C640,73,680,70,720,66C760,62,800,59,840,49.5C880,40,920,26,960,29.3C1000,33,1040,55,1080,53.2C1120,51,1160,26,1200,20.2C1240,15,1280,29,1320,40.3C1360,51,1400,59,1440,51.3C1480,44,1520,22,1560,16.5C1600,11,1640,22,1680,25.7C1720,29,1760,26,1800,36.7C1840,48,1880,73,1920,82.5C1960,92,2000,84,2040,78.8C2080,73,2120,70,2160,58.7C2200,48,2240,29,2280,33C2320,37,2360,62,2400,67.8C2440,73,2480,59,2520,47.7C2560,37,2600,29,2640,27.5C2680,26,2720,29,2760,36.7C2800,44,2840,55,2860,60.5L2880,66L2880,110L2860,110C2840,110,2800,110,2760,110C2720,110,2680,110,2640,110C2600,110,2560,110,2520,110C2480,110,2440,110,2400,110C2360,110,2320,110,2280,110C2240,110,2200,110,2160,110C2120,110,2080,110,2040,110C2000,110,1960,110,1920,110C1880,110,1840,110,1800,110C1760,110,1720,110,1680,110C1640,110,1600,110,1560,110C1520,110,1480,110,1440,110C1400,110,1360,110,1320,110C1280,110,1240,110,1200,110C1160,110,1120,110,1080,110C1040,110,1000,110,960,110C920,110,880,110,840,110C800,110,760,110,720,110C680,110,640,110,600,110C560,110,520,110,480,110C440,110,400,110,360,110C320,110,280,110,240,110C200,110,160,110,120,110C80,110,40,110,20,110L0,110Z"/></svg>