<?xml version="1.0" standalone="no"?>
<svg xmlns:xlink="http://www.w3.org/1999/xlink" id="wave" style="transform:rotate(180deg); transition: 0.3s" viewBox="0 0 1440 110" version="1.1" xmlns="http://www.w3.org/2000/svg"><defs><linearGradient id="sw-gradient-0" x1="0" x2="0" y1="1" y2="0"><stop stop-color="rgba(242, 244, 252, 1)" offset="0%"/><stop stop-color="rgba(242, 244, 252, 1)" offset="100%"/></linearGradient></defs><path style="transform:translate(0, 0px); opacity:1" fill="url(#sw-gradient-0)" d="M0,22L20,25.7C40,29,80,37,120,49.5C160,62,200,81,240,73.3C280,66,320,33,360,27.5C400,22,440,44,480,58.7C520,73,560,81,600,69.7C640,59,680,29,720,14.7C760,0,800,0,840,1.8C880,4,920,7,960,16.5C1000,26,1040,40,1080,47.7C1120,55,1160,55,1200,51.3C1240,48,1280,40,1320,47.7C1360,55,1400,77,1440,71.5C1480,66,1520,33,1560,31.2C1600,29,1640,59,1680,60.5C1720,62,1760,37,1800,22C1840,7,1880,4,1920,18.3C1960,33,2000,66,2040,82.5C2080,99,2120,99,2160,88C2200,77,2240,55,2280,38.5C2320,22,2360,11,2400,16.5C2440,22,2480,44,2520,51.3C2560,59,2600,51,2640,49.5C2680,48,2720,51,2760,58.7C2800,66,2840,77,2860,82.5L2880,88L2880,110L2860,110C2840,110,2800,110,2760,110C2720,110,2680,110,2640,110C2600,110,2560,110,2520,110C2480,110,2440,110,2400,110C2360,110,2320,110,2280,110C2240,110,2200,110,2160,110C2120,110,2080,110,2040,110C2000,110,1960,110,1920,110C1880,110,1840,110,1800,110C1760,110,1720,110,1680,110C1640,110,1600,110,1560,110C1520,110,1480,110,1440,110C1400,110,1360,110,1320,110C1280,110,1240,110,1200,110C1160,110,1120,110,1080,110C1040,110,1000,110,960,110C920,110,880,110,840,110C800,110,760,110,720,110C680,110,640,110,600,110C560,110,520,110,480,110C440,110,400,110,360,110C320,110,280,110,240,110C200,110,160,110,120,110C80,110,40,110,20,110L0,110Z"/></svg>