<?xml version="1.0" standalone="no"?>
<svg xmlns:xlink="http://www.w3.org/1999/xlink" id="wave" style="transform:rotate(0deg); transition: 0.3s" viewBox="0 0 1440 160" version="1.1" xmlns="http://www.w3.org/2000/svg"><defs><linearGradient id="sw-gradient-0" x1="0" x2="0" y1="1" y2="0"><stop stop-color="rgba(255, 255, 255, 1)" offset="0%"/><stop stop-color="rgba(255, 255, 255, 1)" offset="100%"/></linearGradient></defs><path style="transform:translate(0, 0px); opacity:1" fill="url(#sw-gradient-0)" d="M0,64L13.3,74.7C26.7,85,53,107,80,96C106.7,85,133,43,160,34.7C186.7,27,213,53,240,74.7C266.7,96,293,112,320,114.7C346.7,117,373,107,400,106.7C426.7,107,453,117,480,117.3C506.7,117,533,107,560,98.7C586.7,91,613,85,640,74.7C666.7,64,693,48,720,58.7C746.7,69,773,107,800,117.3C826.7,128,853,112,880,104C906.7,96,933,96,960,96C986.7,96,1013,96,1040,82.7C1066.7,69,1093,43,1120,45.3C1146.7,48,1173,80,1200,85.3C1226.7,91,1253,69,1280,66.7C1306.7,64,1333,80,1360,96C1386.7,112,1413,128,1440,122.7C1466.7,117,1493,91,1520,74.7C1546.7,59,1573,53,1600,42.7C1626.7,32,1653,16,1680,26.7C1706.7,37,1733,75,1760,98.7C1786.7,123,1813,133,1840,138.7C1866.7,144,1893,144,1907,144L1920,144L1920,160L1906.7,160C1893.3,160,1867,160,1840,160C1813.3,160,1787,160,1760,160C1733.3,160,1707,160,1680,160C1653.3,160,1627,160,1600,160C1573.3,160,1547,160,1520,160C1493.3,160,1467,160,1440,160C1413.3,160,1387,160,1360,160C1333.3,160,1307,160,1280,160C1253.3,160,1227,160,1200,160C1173.3,160,1147,160,1120,160C1093.3,160,1067,160,1040,160C1013.3,160,987,160,960,160C933.3,160,907,160,880,160C853.3,160,827,160,800,160C773.3,160,747,160,720,160C693.3,160,667,160,640,160C613.3,160,587,160,560,160C533.3,160,507,160,480,160C453.3,160,427,160,400,160C373.3,160,347,160,320,160C293.3,160,267,160,240,160C213.3,160,187,160,160,160C133.3,160,107,160,80,160C53.3,160,27,160,13,160L0,160Z"/></svg>